<?xml version="1.0" encoding="UTF-8" standalone="no"?>
<svg
   xmlns:dc="http://purl.org/dc/elements/1.1/"
   xmlns:cc="http://creativecommons.org/ns#"
   xmlns:rdf="http://www.w3.org/1999/02/22-rdf-syntax-ns#"
   xmlns:svg="http://www.w3.org/2000/svg"
   xmlns="http://www.w3.org/2000/svg"
   version="1.1"
   x="0px"
   y="0px"
   width="27"
   height="40.326164"
   viewBox="0 0 27 40.326164"
   xml:space="preserve"
   id="svg17"><metadata
     id="metadata23"><rdf:RDF><cc:Work
         rdf:about=""><dc:format>image/svg+xml</dc:format><dc:type
           rdf:resource="http://purl.org/dc/dcmitype/StillImage" /><dc:title></dc:title></cc:Work></rdf:RDF></metadata><defs
     id="defs21" /><g
     id="g15"><linearGradient
       id="shadow-gradient2"
       gradientUnits="userSpaceOnUse"
       x1="-440.95651"
       y1="71.673798"
       x2="-440.05649"
       y2="70.873802"
       gradientTransform="matrix(21.2161,0,0,21.7879,9368.4883,-1524.5322)"><stop
         offset="0"
         stop-color="#000"
         id="stop2" /><stop
         offset="1"
         stop-color="#000"
         stop-opacity="0"
         id="stop4" /></linearGradient><path
       d="M 0,13.5 C 0,6 6,0 13.5,0 21,0 27,6 27,13.5 c 0,0.782 -0.066,1.557 -0.198,2.317 l 0.013,0.166 -0.037,0.229 c -0.596,3.702 -3.053,8.472 -6.803,14 -1.472,2.166 -3.045,4.299 -4.617,6.31 -0.549,0.705 -1.061,1.344 -1.521,1.905 -0.246,0.302 -0.433,0.524 -0.547,0.7 -0.118,0.153 -0.271,0.321 -0.468,0.495 -0.223,0.195 -0.463,0.361 -0.727,0.482 -0.406,0.187 -0.865,0.264 -1.4,0.2 C 10.579,40.282 10.547,40.276 10.478,40.255 9.615,40.029 9.015,39.374 8.818,38.575 8.712,38.141 8.73,37.761 8.812,37.393 8.829,37.323 8.844,37.258 8.863,37.2 l 2.77,-10.258 C 5.059,26 0,20.3 0,13.5 Z"
       id="path9"
       style="fill:#ffffff;fill-opacity:0.8" /><path
       d="M 2,13.5 C 2,7.1 7.1,2 13.5,2 19.9,2 25,7.1 25,13.5 c 0,0.768 -0.075,1.517 -0.219,2.2 0.01,0 0,0.1 0,0.151 -1.284,8.002 -13.083,21.948 -13.083,21.948 0,0 -0.375,0.523 -0.732,0.4 -0.367,-0.094 -0.204,-0.562 -0.204,-0.562 L 14.194,24.928 C 13.977,25 13.7,25 13.5,25 7.148,25 2,19.9 2,13.5 Z"
       id="path11"
       style="fill:#ed4543" /><circle
       cx="13.5"
       cy="13.5"
       r="8.5"
       id="circle13"
       style="fill:#ffffff" /></g><g
     transform="matrix(0.01420501,0,0,0.01420501,6.2566694,6.0472939)"
     id="g10"><path
       id="path4"
       d="m 427,41.3 c 0,17.3 14,31.3 31.3,31.3 17.3,0 31.3,-14 31.3,-31.3 C 489.6,24 475.6,10 458.3,10 441,10 427,24 427,41.3 Z" /><path
       id="path6"
       d="m 510.4,41.3 c 0,17.3 14,31.3 31.3,31.3 C 559,72.6 573,58.6 573,41.3 573,24 559,10 541.7,10 524.4,10 510.4,24 510.4,41.3 Z" /><path
       id="path8"
       d="m 686.2,765 c 55.2,-17.2 95.3,-68.6 95.3,-129.4 v -417 C 781.5,143.7 720.8,83 646,83 H 354 c -74.9,0 -135.5,60.7 -135.5,135.5 v 417 c 0,60.8 40.1,112.3 95.3,129.4 l -137,225 h 93.8 L 364.4,833.5 H 635.5 L 729.4,990 h 93.8 z M 646,708.5 c -28.8,0 -52.1,-23.3 -52.1,-52.1 0,-28.8 23.3,-52.1 52.1,-52.1 28.8,0 52.1,23.3 52.1,52.1 0,28.8 -23.4,52.1 -52.1,52.1 z M 416.6,124.7 c 0,-11.5 9.3,-20.9 20.9,-20.9 h 125.1 c 11.5,0 20.8,9.3 20.8,20.9 v 41.7 c 0,11.5 -9.3,20.9 -20.8,20.9 H 437.4 c -11.5,0 -20.9,-9.3 -20.9,-20.9 V 124.7 Z M 291.5,270.6 c 0,-34.5 28,-62.6 62.6,-62.6 H 646 c 34.5,0 62.6,28 62.6,62.6 V 354 c 0,34.5 -28,62.6 -62.6,62.6 H 354 c -34.5,0 -62.6,-28 -62.6,-62.6 V 270.6 Z M 354,604.3 c 28.8,0 52.1,23.3 52.1,52.1 0,28.8 -23.3,52.1 -52.1,52.1 -28.8,0 -52.1,-23.3 -52.1,-52.1 0,-28.8 23.4,-52.1 52.1,-52.1 z" /></g></svg>