<?xml version="1.0" encoding="UTF-8" standalone="no"?>
<svg
   xmlns="http://www.w3.org/2000/svg"
   viewBox="0 0 27 40.326164"
   height="40.326164"
   width="27">
<g id="g15"><linearGradient
       gradientTransform="matrix(21.2161,0,0,21.7879,9368.4883,-1524.5322)"
       y2="70.873802"
       x2="-440.05649"
       y1="71.673798"
       x1="-440.95651"
       gradientUnits="userSpaceOnUse"
       id="shadow-gradient2"><stop
         id="stop2"
         stop-color="#000"
         offset="0" /><stop
         id="stop4"
         stop-opacity="0"
         stop-color="#000"
         offset="1" /></linearGradient><path
       style="fill:#ffffff;fill-opacity:0.8"
       id="path9"
       d="M 0,13.5 C 0,6 6,0 13.5,0 21,0 27,6 27,13.5 c 0,0.782 -0.066,1.557 -0.198,2.317 l 0.013,0.166 -0.037,0.229 c -0.596,3.702 -3.053,8.472 -6.803,14 -1.472,2.166 -3.045,4.299 -4.617,6.31 -0.549,0.705 -1.061,1.344 -1.521,1.905 -0.246,0.302 -0.433,0.524 -0.547,0.7 -0.118,0.153 -0.271,0.321 -0.468,0.495 -0.223,0.195 -0.463,0.361 -0.727,0.482 -0.406,0.187 -0.865,0.264 -1.4,0.2 C 10.579,40.282 10.547,40.276 10.478,40.255 9.615,40.029 9.015,39.374 8.818,38.575 8.712,38.141 8.73,37.761 8.812,37.393 8.829,37.323 8.844,37.258 8.863,37.2 l 2.77,-10.258 C 5.059,26 0,20.3 0,13.5 Z" /><path
       style="fill:#808080;fill-opacity:1"
       id="path11"
       d="M 2,13.5 C 2,7.1 7.1,2 13.5,2 19.9,2 25,7.1 25,13.5 c 0,0.768 -0.075,1.517 -0.219,2.2 0.01,0 0,0.1 0,0.151 -1.284,8.002 -13.083,21.948 -13.083,21.948 0,0 -0.375,0.523 -0.732,0.4 -0.367,-0.094 -0.204,-0.562 -0.204,-0.562 L 14.194,24.928 C 13.977,25 13.7,25 13.5,25 7.148,25 2,19.9 2,13.5 Z" /><circle
       style="fill:#ffffff"
       id="circle13"
       r="8.5"
       cy="13.5"
       cx="13.5" /></g></svg>